<svg width="13" height="12" viewBox="0 0 13 12" fill="none" xmlns="http://www.w3.org/2000/svg">
<path d="M7.12508 1.66875C8.21818 1.82892 9.21025 2.3966 9.90218 3.25785C10.5941 4.1191 10.9347 5.21018 10.8556 6.31211C10.7765 7.41405 10.2836 8.44529 9.47569 9.19887C8.66783 9.95245 7.60485 10.3726 6.50008 10.375C5.61913 10.375 4.7587 10.1091 4.03139 9.61204C3.30407 9.11498 2.74375 8.40992 2.42377 7.58915C2.10378 6.76837 2.03902 5.87012 2.23798 5.01194C2.43693 4.15375 2.89033 3.37562 3.53883 2.77937L2.65445 1.895C1.67949 2.80864 1.06159 4.0395 0.911394 5.36718C0.761201 6.69486 1.08852 8.03264 1.83475 9.14099C2.58098 10.2493 3.69738 11.0559 4.98404 11.4161C6.2707 11.7764 7.64359 11.6669 8.85688 11.1072C10.0702 10.5476 11.0446 9.57428 11.6057 8.36166C12.1668 7.14904 12.278 5.77628 11.9192 4.48919C11.5605 3.2021 10.7553 2.08475 9.6478 1.33721C8.54033 0.589665 7.20294 0.260755 5.87508 0.409374V4.17812H7.12508V1.66875Z" fill="#1DAE34"/>
<path d="M3.81702 3.94187C3.69986 4.05908 3.63403 4.21802 3.63403 4.38375C3.63403 4.54947 3.69986 4.70842 3.81702 4.82562L5.58515 6.59375C5.70303 6.7076 5.8609 6.77059 6.02478 6.76917C6.18865 6.76774 6.34541 6.70201 6.46129 6.58613C6.57717 6.47025 6.6429 6.3135 6.64432 6.14962C6.64574 5.98575 6.58275 5.82787 6.4689 5.71L4.70015 3.94187C4.58294 3.8247 4.424 3.75888 4.25827 3.75888C4.09255 3.75888 3.93423 3.8247 3.81702 3.94187Z" fill="#1DAE34"/>
</svg>
